<svg width="24" height="24" viewBox="0 0 24 24" fill="none" xmlns="http://www.w3.org/2000/svg">
<path d="M13.7299 3.50989L15.4899 7.02989C15.7299 7.51989 16.3699 7.98989 16.9099 8.07989L20.0999 8.60989C22.1399 8.94989 22.6199 10.4299 21.1499 11.8899L18.6699 14.3699C18.2499 14.7899 18.0199 15.5999 18.1499 16.1799L18.8599 19.2499C19.4199 21.6799 18.1299 22.6199 15.9799 21.3499L12.9899 19.5799C12.4499 19.2599 11.5599 19.2599 11.0099 19.5799L8.01991 21.3499C5.87991 22.6199 4.57991 21.6699 5.13991 19.2499L5.84991 16.1799C5.97991 15.5999 5.74991 14.7899 5.32991 14.3699L2.84991 11.8899C1.38991 10.4299 1.85991 8.94989 3.89991 8.60989L7.08991 8.07989C7.61991 7.98989 8.25991 7.51989 8.49991 7.02989L10.2599 3.50989C11.2199 1.59989 12.7799 1.59989 13.7299 3.50989Z" stroke="#292D32" stroke-width="1.5" stroke-linecap="round" stroke-linejoin="round"/>
</svg>
