<svg width="24" height="24" viewBox="0 0 24 24" fill="none" xmlns="http://www.w3.org/2000/svg">
<path d="M10.05 2.53004L4.03002 6.46004C2.10002 7.72004 2.10002 10.54 4.03002 11.8L10.05 15.73C11.13 16.44 12.91 16.44 13.99 15.73L19.98 11.8C21.9 10.54 21.9 7.73004 19.98 6.47004L13.99 2.54004C12.91 1.82004 11.13 1.82004 10.05 2.53004Z" stroke="#292D32" stroke-width="1.5" stroke-linecap="round" stroke-linejoin="round"/>
<path d="M5.63012 13.08L5.62012 17.77C5.62012 19.04 6.60012 20.4 7.80012 20.8L10.9901 21.86C11.5401 22.04 12.4501 22.04 13.0101 21.86L16.2001 20.8C17.4001 20.4 18.3801 19.04 18.3801 17.77V13.13" stroke="#292D32" stroke-width="1.5" stroke-linecap="round" stroke-linejoin="round"/>
<path d="M21.3999 15V9" stroke="#292D32" stroke-width="1.5" stroke-linecap="round" stroke-linejoin="round"/>
</svg>
